#!OML:ASF I:\golf\golf\golf 2\Subject 1\2002-09-07\Subject1.ASF
:FULLY-SPECIFIED
:DEGREES
198
root -5.91338 17.8433 2.50699 2.81834 40.3689 -11.5671
lowerback 4.08242 -9.57378 -13.7116
upperback -0.374942 -13.3272 -2.21779
thorax -0.128007 -6.54925 5.33623
lowerneck -6.41246 21.5546 3.30066
upperneck 14.9951 31.5584 -12.6274
head 8.29231 14.2584 -1.12116
rclavicle -1.11816e-014 0
rhumerus 28.6774 -26.6127 -60.7169
rradius 105.416
rwrist -14.822
rhand -61.1515 19.472
rfingers 7.12502
rthumb -33.2474 -7.47564
lclavicle -1.11816e-014 0
lhumerus 111.845 -42.3913 44.3498
lradius 36.8739
lwrist 2.35
lhand -9.79031 6.85393
lfingers 7.12502
lthumb -163.814 -143.802
rfemur -31.1012 16.241 24.2952
rtibia 30.7286
rfoot -5.87178 23.4411
rtoes 19.9582
lfemur -5.46553 22.973 4.93581
ltibia 35.6036
lfoot 0.652409 10.9232
ltoes -32.4439
199
root -5.91311 17.8667 2.45335 2.8051 41.2627 -11.7323
lowerback 4.33169 -9.54134 -13.5655
upperback -0.282191 -13.3116 -2.13827
thorax -0.182505 -6.5447 5.38366
lowerneck -6.22122 21.4292 3.5953
upperneck 15.0442 31.3986 -12.7866
head 8.33751 14.193 -1.22705
rclavicle -1.1609e-013 -9.54166e-015
rhumerus 28.38 -26.3533 -61.2389
rradius 104.977
rwrist -15.6374
rhand -60.8685 18.9284
rfingers 7.12502
rthumb -32.9783 -8.07639
lclavicle -1.1609e-013 -9.54166e-015
lhumerus 111.411 -42.8466 44.3496
lradius 36.5737
lwrist 2.38347
lhand -9.34689 7.51999
lfingers 7.12502
lthumb -163.388 -143.171
rfemur -31.254 15.6555 24.2445
rtibia 30.6003
rfoot -7.04231 22.7074
rtoes 14.3572
lfemur -5.95926 23.0832 4.60844
ltibia 35.2988
lfoot -0.180457 10.9679
ltoes -32.6761
200
root -5.91286 17.8791 2.40003 2.68848 42.1405 -12.0614
lowerback 4.49846 -9.61093 -13.4209
upperback -0.0952341 -13.4088 -1.83874
thorax -0.0160059 -6.61849 5.6168
lowerneck -6.5132 21.4595 3.16305
upperneck 15.0822 31.4636 -12.676
head 8.31928 14.1968 -1.1204
rclavicle -7.93151e-014 1.59028e-014
rhumerus 28.6523 -25.8581 -61.894
rradius 104.487
rwrist -16.4361
rhand -60.5471 17.6751
rfingers 7.12502
rthumb -32.6725 -9.3936
lclavicle -7.93151e-014 1.59028e-014
lhumerus 110.792 -42.8633 44.6064
lradius 36.1273
lwrist 2.33583
lhand -8.83623 7.92052
lfingers 7.12502
lthumb -162.896 -142.812
rfemur -31.6006 15.1788 24.2075
rtibia 30.4382
rfoot -5.73672 22.4085
rtoes 18.2887
lfemur -6.47437 23.288 4.43179
ltibia 35.0784
lfoot -1.0086 10.8989
ltoes -32.9854
201
root -5.91363 17.8592 2.33815 2.66381 43.0611 -12.2988
lowerback 4.64692 -9.68027 -13.3039
upperback 0.0888842 -13.5037 -1.57464
thorax 0.155242 -6.69059 5.82461
lowerneck -7.04897 21.4982 2.75808
upperneck 15.3527 31.5679 -12.44
head 8.40515 14.1974 -0.937026
rclavicle -2.0276e-014 4.45278e-014
rhumerus 28.8635 -25.4056 -62.635
rradius 103.97
rwrist -16.9807
rhand -60.3753 16.5133
rfingers 7.12502
rthumb -32.5091 -10.5893
lclavicle -2.0276e-014 4.45278e-014
lhumerus 110.238 -42.9446 44.9429
lradius 35.4763
lwrist 2.42863
lhand -8.11554 8.21865
lfingers 7.12502
lthumb -162.202 -142.576
rfemur -31.9194 14.7778 23.9819
rtibia 30.2569
rfoot -4.65409 22.0171
rtoes 22.5264
lfemur -7.11146 23.5468 4.15361
ltibia 34.9364
lfoot -1.82686 10.9003
ltoes -32.8159
202
root -5.91564 17.8434 2.27187 2.67243 44.0749 -12.5361
lowerback 4.8137 -9.71408 -13.0862
upperback 0.217654 -13.5545 -1.42054
thorax 0.199427 -6.72844 5.88723
lowerneck -7.23228 21.4093 2.7751
upperneck 15.5289 31.467 -12.3804
head 8.47979 14.1342 -0.9067
rclavicle -1.70955e-014 1.90833e-014
rhumerus 28.5932 -25.0442 -63.2026
rradius 103.436
rwrist -17.5237
rhand -60.4711 16.2128
rfingers 7.12502
rthumb -32.6002 -10.8709
lclavicle -1.70955e-014 1.90833e-014
lhumerus 109.638 -43.4026 45.3088
lradius 34.9586
lwrist 2.60765
lhand -7.32931 8.54278
lfingers 7.12502
lthumb -161.446 -142.322
rfemur -32.1322 14.2234 23.7868
rtibia 30.0028
rfoot -4.78319 21.4931
rtoes 21.7254
lfemur -7.93804 23.7865 3.79683
ltibia 34.8792
lfoot -2.57123 10.9209
ltoes -33.462
203
root -5.91732 17.8435 2.20899 2.70599 45.1072 -12.7103
lowerback 4.95999 -9.78234 -12.9714
upperback 0.376366 -13.6494 -1.20846
thorax 0.332938 -6.79577 6.04689
lowerneck -7.44594 21.3031 2.7258
upperneck 15.6412 31.3705 -12.4719
head 8.55592 14.0595 -0.909138
rclavicle -1.09928e-013 3.18055e-015
rhumerus 28.4381 -24.5534 -63.8304
rradius 102.881
rwrist -18.2104
rhand -60.4319 16.0718
rfingers 7.12502
rthumb -32.563 -11.0196
lclavicle -1.09928e-013 3.18055e-015
lhumerus 108.773 -43.7437 45.872
lradius 34.637
lwrist 2.84536
lhand -6.66587 8.70961
lfingers 7.12502
lthumb -160.808 -142.217
rfemur -32.3826 13.7809 23.5115
rtibia 29.8061
rfoot -5.07376 20.8679
rtoes 19.7257
lfemur -8.7924 24.0294 3.36256
ltibia 34.837
lfoot -3.25722 10.8893
ltoes -34.272
